<svg width="160" height="160" fill="none" xmlns="http://www.w3.org/2000/svg"><path fill="#FFE17F" d="M0 0h160v160H0z"/><path d="M119.68 47.01h-79.5A3.19 3.19 0 0 0 37 50.2V96.6a3.19 3.19 0 0 0 3.19 3.2h79.49a3.19 3.19 0 0 0 3.19-3.2V50.2a3.19 3.19 0 0 0-3.2-3.19ZM45.25 80.24h-.23a3.19 3.19 0 0 1-3.19-3.2v-7.28a3.19 3.19 0 0 1 3.2-3.18h.22v13.66Zm61.23 15.17H50.2v-44h56.28v44Zm8.78-17.86a4.15 4.15 0 1 1 0-8.29 4.15 4.15 0 0 1 0 8.3ZM91.51 43H68.35v2.76h23.16V43ZM83.47 107.86v-2.97h8.04v-2.76H68.36v2.76h8.04v35.24a6.07 6.07 0 0 0-3.63 5.56V160H87.1v-14.3c0-2.5-1.5-4.63-3.63-5.56v-28h4.8l5.04 1.22v-6.71l-5.05 1.21h-4.8Z" fill="#363636"/></svg>